<svg width="17" height="17" viewBox="0 0 17 17" fill="none" xmlns="http://www.w3.org/2000/svg">
<g clip-path="url(#clip0_1_45)">
<path d="M8.5 9.03125C9.65458 9.03125 10.6746 9.3075 11.5033 9.66875C12.2683 10.0087 12.75 10.7737 12.75 11.6025V12.75H4.25V11.6096C4.25 10.7737 4.73167 10.0087 5.49667 9.67583C6.32542 9.3075 7.34542 9.03125 8.5 9.03125ZM2.83333 9.20833C3.6125 9.20833 4.25 8.57083 4.25 7.79167C4.25 7.0125 3.6125 6.375 2.83333 6.375C2.05417 6.375 1.41667 7.0125 1.41667 7.79167C1.41667 8.57083 2.05417 9.20833 2.83333 9.20833ZM3.63375 9.9875C3.37167 9.945 3.10958 9.91667 2.83333 9.91667C2.13208 9.91667 1.46625 10.0654 0.864167 10.3275C0.34 10.5542 0 11.0642 0 11.6379V12.75H3.1875V11.6096C3.1875 11.0217 3.35042 10.4692 3.63375 9.9875ZM14.1667 9.20833C14.9458 9.20833 15.5833 8.57083 15.5833 7.79167C15.5833 7.0125 14.9458 6.375 14.1667 6.375C13.3875 6.375 12.75 7.0125 12.75 7.79167C12.75 8.57083 13.3875 9.20833 14.1667 9.20833ZM17 11.6379C17 11.0642 16.66 10.5542 16.1358 10.3275C15.5337 10.0654 14.8679 9.91667 14.1667 9.91667C13.8904 9.91667 13.6283 9.945 13.3663 9.9875C13.6496 10.4692 13.8125 11.0217 13.8125 11.6096V12.75H17V11.6379ZM8.5 4.25C9.67583 4.25 10.625 5.19917 10.625 6.375C10.625 7.55083 9.67583 8.5 8.5 8.5C7.32417 8.5 6.375 7.55083 6.375 6.375C6.375 5.19917 7.32417 4.25 8.5 4.25Z" fill="#1E1E1E"/>
</g>
<defs>
<clipPath id="clip0_1_45">
<rect width="17" height="17" fill="white"/>
</clipPath>
</defs>
</svg>
