<svg width="16" height="16" viewBox="0 0 16 16" fill="none" xmlns="http://www.w3.org/2000/svg">
<g clip-path="url(#clip0_1_52)">
<path d="M12.76 8.62666C12.7867 8.42666 12.8 8.22 12.8 8C12.8 7.78666 12.7867 7.57333 12.7533 7.37333L14.1067 6.32C14.2267 6.22666 14.26 6.04666 14.1867 5.91333L12.9067 3.7C12.8267 3.55333 12.66 3.50666 12.5133 3.55333L10.92 4.19333C10.5867 3.94 10.2333 3.72666 9.84001 3.56666L9.60001 1.87333C9.57334 1.71333 9.44001 1.6 9.28001 1.6H6.72001C6.56001 1.6 6.43334 1.71333 6.40667 1.87333L6.16667 3.56666C5.77334 3.72666 5.41334 3.94666 5.08667 4.19333L3.49334 3.55333C3.34667 3.5 3.18001 3.55333 3.10001 3.7L1.82667 5.91333C1.74667 6.05333 1.77334 6.22666 1.90667 6.32L3.26001 7.37333C3.22667 7.57333 3.20001 7.79333 3.20001 8C3.20001 8.20667 3.21334 8.42666 3.24667 8.62666L1.89334 9.68C1.77334 9.77333 1.74001 9.95333 1.81334 10.0867L3.09334 12.3C3.17334 12.4467 3.34001 12.4933 3.48667 12.4467L5.08001 11.8067C5.41334 12.06 5.76667 12.2733 6.16001 12.4333L6.40001 14.1267C6.43334 14.2867 6.56001 14.4 6.72001 14.4H9.28001C9.44001 14.4 9.57334 14.2867 9.59334 14.1267L9.83334 12.4333C10.2267 12.2733 10.5867 12.06 10.9133 11.8067L12.5067 12.4467C12.6533 12.5 12.82 12.4467 12.9 12.3L14.18 10.0867C14.26 9.94 14.2267 9.77333 14.1 9.68L12.76 8.62666ZM8.00001 10.4C6.68001 10.4 5.60001 9.32 5.60001 8C5.60001 6.68 6.68001 5.6 8.00001 5.6C9.32001 5.6 10.4 6.68 10.4 8C10.4 9.32 9.32001 10.4 8.00001 10.4Z" fill="#1E1E1E"/>
</g>
<defs>
<clipPath id="clip0_1_52">
<rect width="16" height="16" fill="white"/>
</clipPath>
</defs>
</svg>
